# xmcd
#
# Track frame offsets:
#	150
#	2781
#	13546
#	25247
#	36106
#	38347
#	42934
#	54630
#	65433
#	67193
#	78702
#	92856
#	95468
#	112987
#	122807
#	134606
#	144524
#	155242
#	167893
#	175649
#
# Disc length: 2486 seconds
#
# Revision: 0
# Processed by: cddbd v1.5.2PL0 Copyright (c) Steve Scherf et al.
# Submitted via: EasyCDDAExtractor 16.0.1.1
#
DISCID=1209b414
DTITLE=Buck Owens - "Live" in Scandinavia
DYEAR=1970
DGENRE=Country
TTITLE0=Gunner Bide - Opening Announcement by Gunner Bide
TTITLE1=Don Rich and the Buckaroos - Up on Cripple Creek
TTITLE2=Don Rich and the Buckaroos - Okie From Muskogee
TTITLE3=Don Rich and the Buckaroos - The Night They Drove Old Dixie Down
TTITLE4=Don Rich and the Buckaroos - Buckaroo
TTITLE5=Murray Kash - Murray Kash Introduces Buddy Alan Owens
TTITLE6=Buddy Alan - Freeborn Man
TTITLE7=Buddy Alan - Big Mama's Medicine Show
TTITLE8=Murray Kash - Murray Kash Introduces the Hagers
TTITLE9=The Hagers - I'm Jesse Jame
TTITLE10=The Hagers - Six Days on the Road
TTITLE11=Buck Owens - Murray Kash Introduces Buck Owens
TTITLE12=Buck Owens - Medley: Act Naturally - Together Again
TTITLE13=Buck Owens - Gunner Bide Wishes Buck Owens Welcome
TTITLE14=Buck Owens - Medley: Love's Gonna Live Here - Cryin' Time - Sam's Pla
TTITLE14=ce
TTITLE15=Buck Owens - Medley: I've Got a Tiger by the Tail - Open Up Your Hear
TTITLE15=t
TTITLE16=Buck Owens - Orange Blossom Special
TTITLE17=Buck Owens With Buddy Alan - Let the World Keep on a Turnin'
TTITLE18=Buck Owens with Buddy Alan, the Hagers and Don Rich - Tall Dark Stran
TTITLE18=ger
TTITLE19=Buck Owens with Buddy Alan, the Hagers and Don Rich - Johnny B  Goode
TTITLE19=
EXTD=
EXTT0=
EXTT1=
EXTT2=
EXTT3=
EXTT4=
EXTT5=
EXTT6=
EXTT7=
EXTT8=
EXTT9=
EXTT10=
EXTT11=
EXTT12=
EXTT13=
EXTT14=
EXTT15=
EXTT16=
EXTT17=
EXTT18=
EXTT19=
PLAYORDER=
